<svg xmlns="http://www.w3.org/2000/svg" width="5184" height="3456" viewBox="0 0 5184 3456">
  <defs>
    <style>
      .cls-1 {
        fill-rule: evenodd;
      }
    </style>
  </defs>
  <path id="Color_Fill_1" data-name="Color Fill 1" class="cls-1" d="M0,0H5184V2788h-1q-98.49-39-197-78-357.96,4.995-716,10-772.425,10.005-1545,20,10.995-93.99,22-188,36.99-20.505,74-41-15-36.99-30-74-26.49-107.985-53-216-13.995-57.99-28-116,19.005,7.005,38,14,18-28.995,36-58v-45c0-62.85-4.54-113.15-14-165q-4.005-31.995-8-64-54.99-54.495-110-109-1.995-24.99-4-50c-5.68-34.73-10.5-63.38-19-92q-3.495-15-7-30-19.5-13.995-39-28c-12.28-8.95-45.39-29.91-67-21q-32.49,51-65,102-15,66.495-30,133l-80,28q-15,84.99-30,170v81c0,23.89-6.04,81.48,2,99q32.49,10.005,65,20-7.5,31.995-15,64-2.505,19.995-5,40-19.005,158.49-38,317l51,45q7.005,98.985,14,198-866.91-21.495-1734-43l-485-12-121-3c-13.51-2.03-32.838,3.42-43-2q6.5-3.495,13-7Q7.5,2445.02,0,2203V0ZM2539,2612q13.995,1.005,28,2c0.08,54.37,16.9,90.3,23,134l-73-6v-1C2523.13,2699.23,2534.09,2657.89,2539,2612Z"/>
</svg>
