<svg xmlns="http://www.w3.org/2000/svg" width="2464" height="1386" viewBox="0 0 2464 1386">
  <defs>
    <style>
      .cls-1 {
        fill-rule: evenodd;
      }
    </style>
  </defs>
  <path id="Color_Fill_1" data-name="Color Fill 1" class="cls-1" d="M0,0H2464V1158l-175-3c-23.87-3.59-56.03,5.65-75-3l-15-18q-49.5,1.995-99,4,12-30.99,24-62-5.505-49.5-11-99-2.505-26-5-52c-20.39-79.2-47.58-154.581-90-212q-32.49-21-65-42h-98q-11.505-11.5-23-23-18-24.5-36-49c-22.27-12.705-84.61-13.161-104,0q-19.995,29.5-40,59c3.33,20.895,11.22,46.994,21,64q11.505,18,23,36v95c11.26,47.887,27.98,105.648,52,142l-140,55q-18,16.005-36,32,25.995,46.5,52,93Q814.075,1198.505,4,1222q-2-42.99-4-86V0Z"/>
</svg>
